<?xml version="1.0" standalone="no"?>
<!DOCTYPE svg PUBLIC "-//W3C//DTD SVG 20010904//EN"
 "http://www.w3.org/TR/2001/REC-SVG-20010904/DTD/svg10.dtd">
<svg version="1.0" xmlns="http://www.w3.org/2000/svg"
 width="700.000000pt" height="700.000000pt" viewBox="0 0 700.000000 700.000000"
 preserveAspectRatio="xMidYMid meet">
<metadata>
Created by potrace 1.14, written by Peter Selinger 2001-2017
</metadata>
<g transform="translate(0.000000,700.000000) scale(0.100000,-0.100000)"
fill="#000000" stroke="none">
<path d="M988 6984 c-497 -77 -898 -481 -973 -981 -23 -150 -22 -4987 0 -5119
78 -453 421 -795 872 -869 89 -14 347 -16 2668 -13 l2570 3 80 22 c384 104
658 376 766 763 l24 85 3 2510 c2 1855 0 2535 -8 2605 -63 510 -460 919 -967
995 -140 21 -4899 21 -5035 -1z m4685 -661 c187 -71 309 -200 374 -393 17 -53
18 -142 21 -2097 l2 -2043 -2182 -2 -2183 -3 -51 -23 c-102 -46 -145 -123
-145 -256 -1 -134 43 -212 145 -258 l51 -23 2183 -3 2182 -2 0 -285 0 -285
-2212 2 -2213 3 -80 23 c-317 92 -521 291 -604 591 l-26 96 0 2130 0 2130 24
94 c46 183 152 348 287 448 76 56 181 111 262 138 136 44 93 43 2152 42 l1955
-2 58 -22z"/>
<path d="M2810 4897 c-104 -31 -171 -71 -254 -148 -78 -73 -125 -144 -164
-247 -23 -59 -26 -82 -26 -197 0 -115 3 -138 26 -197 52 -136 70 -158 600
-680 l507 -500 501 493 c275 271 516 516 535 545 94 141 125 303 90 468 -47
220 -234 412 -460 471 -76 19 -233 19 -310 0 -97 -25 -195 -79 -280 -154 l-78
-70 -74 69 c-81 76 -177 129 -278 155 -90 23 -243 19 -335 -8z"/>
</g>
</svg>
